<mxfile host="app.diagrams.net" modified="2023-09-19T16:38:07.806Z" agent="Mozilla/5.0 (Windows NT 10.0; Win64; x64) AppleWebKit/537.36 (KHTML, like Gecko) Chrome/116.0.0.0 Safari/537.36" etag="t-jcnxdgEMTwhbQZbCWI" version="21.7.5" type="device">
  <diagram name="Page-1" id="cKXuih8zIMnXQPZ7SSiN">
    <mxGraphModel dx="819" dy="451" grid="1" gridSize="10" guides="1" tooltips="1" connect="1" arrows="1" fold="1" page="1" pageScale="1" pageWidth="827" pageHeight="1169" math="0" shadow="0">
      <root>
        <mxCell id="0" />
        <mxCell id="1" parent="0" />
        <mxCell id="ot_ApE6teFQn7U3m3sEq-1" value="Користувач" style="shape=umlActor;verticalLabelPosition=bottom;verticalAlign=top;html=1;outlineConnect=0;" vertex="1" parent="1">
          <mxGeometry x="270" y="315" width="30" height="60" as="geometry" />
        </mxCell>
        <mxCell id="ot_ApE6teFQn7U3m3sEq-2" value="&lt;font style=&quot;font-size: 7px;&quot;&gt;авторизувати користувача&lt;/font&gt;" style="ellipse;whiteSpace=wrap;html=1;" vertex="1" parent="1">
          <mxGeometry x="440" y="330" width="60" height="30" as="geometry" />
        </mxCell>
        <mxCell id="ot_ApE6teFQn7U3m3sEq-5" value="" style="endArrow=none;html=1;rounded=0;" edge="1" parent="1" source="ot_ApE6teFQn7U3m3sEq-1" target="ot_ApE6teFQn7U3m3sEq-2">
          <mxGeometry width="50" height="50" relative="1" as="geometry">
            <mxPoint x="380" y="390" as="sourcePoint" />
            <mxPoint x="430" y="340" as="targetPoint" />
          </mxGeometry>
        </mxCell>
        <mxCell id="ot_ApE6teFQn7U3m3sEq-18" value="&lt;font style=&quot;font-size: 6px;&quot;&gt;Перегляд інформації про якість повітря.&lt;/font&gt;" style="ellipse;whiteSpace=wrap;html=1;" vertex="1" parent="1">
          <mxGeometry x="340" y="390" width="60" height="30" as="geometry" />
        </mxCell>
        <mxCell id="ot_ApE6teFQn7U3m3sEq-19" value="&lt;font style=&quot;font-size: 6px;&quot;&gt;Отримання рекомендацій для підтримки фізичного здоров&#39;я під час скульптурування.&lt;/font&gt;" style="ellipse;whiteSpace=wrap;html=1;" vertex="1" parent="1">
          <mxGeometry x="470" y="460" width="60" height="30" as="geometry" />
        </mxCell>
        <mxCell id="ot_ApE6teFQn7U3m3sEq-20" value="&lt;font style=&quot;font-size: 6px;&quot;&gt;Звернення за консультацією щодо фізичного здоров&#39;я.&lt;/font&gt;" style="ellipse;whiteSpace=wrap;html=1;" vertex="1" parent="1">
          <mxGeometry x="540" y="380" width="60" height="30" as="geometry" />
        </mxCell>
        <mxCell id="ot_ApE6teFQn7U3m3sEq-21" value="&lt;font style=&quot;font-size: 6px;&quot;&gt;Звернення за консультацією щодо скульптурування.&lt;/font&gt;" style="ellipse;whiteSpace=wrap;html=1;" vertex="1" parent="1">
          <mxGeometry x="540" y="470" width="60" height="30" as="geometry" />
        </mxCell>
        <mxCell id="ot_ApE6teFQn7U3m3sEq-22" value="Clean-Air-Info-For-Good-Health" style="shape=umlActor;verticalLabelPosition=bottom;verticalAlign=top;html=1;outlineConnect=0;" vertex="1" parent="1">
          <mxGeometry x="650" y="230" width="30" height="60" as="geometry" />
        </mxCell>
        <mxCell id="ot_ApE6teFQn7U3m3sEq-23" value="&lt;font style=&quot;font-size: 6px;&quot;&gt;Збір та аналіз даних про якість повітря.&lt;/font&gt;" style="ellipse;whiteSpace=wrap;html=1;" vertex="1" parent="1">
          <mxGeometry x="605" y="345" width="60" height="30" as="geometry" />
        </mxCell>
        <mxCell id="ot_ApE6teFQn7U3m3sEq-24" value="&lt;font style=&quot;font-size: 6px;&quot;&gt;Надання рекомендацій щодо фізичного здоров&#39;я та скульптурування на основі зібраних даних.&lt;/font&gt;" style="ellipse;whiteSpace=wrap;html=1;" vertex="1" parent="1">
          <mxGeometry x="610" y="440" width="60" height="30" as="geometry" />
        </mxCell>
        <mxCell id="ot_ApE6teFQn7U3m3sEq-25" value="Спеціаліст з фізичного здоров&#39;я" style="shape=umlActor;verticalLabelPosition=bottom;verticalAlign=top;html=1;outlineConnect=0;" vertex="1" parent="1">
          <mxGeometry x="310" y="585" width="30" height="60" as="geometry" />
        </mxCell>
        <mxCell id="ot_ApE6teFQn7U3m3sEq-28" value="&lt;font style=&quot;font-size: 6px;&quot;&gt;Надання консультацій користувачам щодо збереження фізичного здоров&#39;я.&lt;/font&gt;" style="ellipse;whiteSpace=wrap;html=1;" vertex="1" parent="1">
          <mxGeometry x="414" y="530" width="60" height="30" as="geometry" />
        </mxCell>
        <mxCell id="ot_ApE6teFQn7U3m3sEq-29" value="Спеціаліст з скульптурування" style="shape=umlActor;verticalLabelPosition=bottom;verticalAlign=top;html=1;outlineConnect=0;" vertex="1" parent="1">
          <mxGeometry x="650" y="585" width="30" height="60" as="geometry" />
        </mxCell>
        <mxCell id="ot_ApE6teFQn7U3m3sEq-30" value="&lt;font style=&quot;font-size: 6px;&quot;&gt;Надання консультацій користувачам щодо скульптурування.&lt;/font&gt;" style="ellipse;whiteSpace=wrap;html=1;" vertex="1" parent="1">
          <mxGeometry x="530" y="540" width="60" height="30" as="geometry" />
        </mxCell>
        <mxCell id="ot_ApE6teFQn7U3m3sEq-31" value="Зовнішні системи" style="shape=umlActor;verticalLabelPosition=bottom;verticalAlign=top;html=1;outlineConnect=0;" vertex="1" parent="1">
          <mxGeometry x="220" y="450" width="30" height="60" as="geometry" />
        </mxCell>
        <mxCell id="ot_ApE6teFQn7U3m3sEq-32" value="&lt;font style=&quot;font-size: 6px;&quot;&gt;Зовнішні системи або сервіси, які можуть надавати додаткові дані для аналізу якості повітря.&lt;/font&gt;" style="ellipse;whiteSpace=wrap;html=1;" vertex="1" parent="1">
          <mxGeometry x="340" y="480" width="60" height="30" as="geometry" />
        </mxCell>
        <mxCell id="ot_ApE6teFQn7U3m3sEq-36" value="include" style="html=1;verticalAlign=bottom;endArrow=open;dashed=1;endSize=8;curved=0;rounded=0;" edge="1" parent="1" source="ot_ApE6teFQn7U3m3sEq-18" target="ot_ApE6teFQn7U3m3sEq-2">
          <mxGeometry relative="1" as="geometry">
            <mxPoint x="510" y="390" as="sourcePoint" />
            <mxPoint x="430" y="390" as="targetPoint" />
          </mxGeometry>
        </mxCell>
        <mxCell id="ot_ApE6teFQn7U3m3sEq-37" value="include" style="html=1;verticalAlign=bottom;endArrow=open;dashed=1;endSize=8;curved=0;rounded=0;" edge="1" parent="1" source="ot_ApE6teFQn7U3m3sEq-19" target="ot_ApE6teFQn7U3m3sEq-2">
          <mxGeometry relative="1" as="geometry">
            <mxPoint x="425" y="402" as="sourcePoint" />
            <mxPoint x="465" y="368" as="targetPoint" />
          </mxGeometry>
        </mxCell>
        <mxCell id="ot_ApE6teFQn7U3m3sEq-38" value="include" style="html=1;verticalAlign=bottom;endArrow=open;dashed=1;endSize=8;curved=0;rounded=0;" edge="1" parent="1" source="ot_ApE6teFQn7U3m3sEq-20" target="ot_ApE6teFQn7U3m3sEq-2">
          <mxGeometry relative="1" as="geometry">
            <mxPoint x="435" y="412" as="sourcePoint" />
            <mxPoint x="475" y="378" as="targetPoint" />
          </mxGeometry>
        </mxCell>
        <mxCell id="ot_ApE6teFQn7U3m3sEq-40" value="" style="endArrow=none;html=1;rounded=0;exitX=0.5;exitY=0.5;exitDx=0;exitDy=0;exitPerimeter=0;" edge="1" parent="1" source="ot_ApE6teFQn7U3m3sEq-31" target="ot_ApE6teFQn7U3m3sEq-32">
          <mxGeometry width="50" height="50" relative="1" as="geometry">
            <mxPoint x="430" y="460" as="sourcePoint" />
            <mxPoint x="480" y="410" as="targetPoint" />
          </mxGeometry>
        </mxCell>
        <mxCell id="ot_ApE6teFQn7U3m3sEq-42" value="include" style="html=1;verticalAlign=bottom;endArrow=open;dashed=1;endSize=8;curved=0;rounded=0;" edge="1" parent="1" source="ot_ApE6teFQn7U3m3sEq-32" target="ot_ApE6teFQn7U3m3sEq-2">
          <mxGeometry relative="1" as="geometry">
            <mxPoint x="489" y="450" as="sourcePoint" />
            <mxPoint x="481" y="370" as="targetPoint" />
          </mxGeometry>
        </mxCell>
        <mxCell id="ot_ApE6teFQn7U3m3sEq-47" value="" style="endArrow=none;html=1;rounded=0;" edge="1" parent="1" source="ot_ApE6teFQn7U3m3sEq-2" target="ot_ApE6teFQn7U3m3sEq-22">
          <mxGeometry width="50" height="50" relative="1" as="geometry">
            <mxPoint x="500" y="430" as="sourcePoint" />
            <mxPoint x="550" y="380" as="targetPoint" />
          </mxGeometry>
        </mxCell>
        <mxCell id="ot_ApE6teFQn7U3m3sEq-48" value="" style="endArrow=none;html=1;rounded=0;" edge="1" parent="1" source="ot_ApE6teFQn7U3m3sEq-30" target="ot_ApE6teFQn7U3m3sEq-29">
          <mxGeometry width="50" height="50" relative="1" as="geometry">
            <mxPoint x="560" y="550" as="sourcePoint" />
            <mxPoint x="530" y="480" as="targetPoint" />
          </mxGeometry>
        </mxCell>
        <mxCell id="ot_ApE6teFQn7U3m3sEq-49" value="include" style="html=1;verticalAlign=bottom;endArrow=open;dashed=1;endSize=8;curved=0;rounded=0;" edge="1" parent="1" source="ot_ApE6teFQn7U3m3sEq-21" target="ot_ApE6teFQn7U3m3sEq-2">
          <mxGeometry relative="1" as="geometry">
            <mxPoint x="559" y="394" as="sourcePoint" />
            <mxPoint x="501" y="366" as="targetPoint" />
          </mxGeometry>
        </mxCell>
        <mxCell id="ot_ApE6teFQn7U3m3sEq-50" value="" style="endArrow=none;html=1;rounded=0;" edge="1" parent="1" source="ot_ApE6teFQn7U3m3sEq-29" target="ot_ApE6teFQn7U3m3sEq-21">
          <mxGeometry width="50" height="50" relative="1" as="geometry">
            <mxPoint x="480" y="530" as="sourcePoint" />
            <mxPoint x="530" y="480" as="targetPoint" />
          </mxGeometry>
        </mxCell>
        <mxCell id="ot_ApE6teFQn7U3m3sEq-51" value="" style="endArrow=none;html=1;rounded=0;" edge="1" parent="1" source="ot_ApE6teFQn7U3m3sEq-25" target="ot_ApE6teFQn7U3m3sEq-28">
          <mxGeometry width="50" height="50" relative="1" as="geometry">
            <mxPoint x="420" y="490" as="sourcePoint" />
            <mxPoint x="470" y="440" as="targetPoint" />
          </mxGeometry>
        </mxCell>
        <mxCell id="ot_ApE6teFQn7U3m3sEq-52" value="include" style="html=1;verticalAlign=bottom;endArrow=open;dashed=1;endSize=8;curved=0;rounded=0;" edge="1" parent="1" source="ot_ApE6teFQn7U3m3sEq-28" target="ot_ApE6teFQn7U3m3sEq-2">
          <mxGeometry relative="1" as="geometry">
            <mxPoint x="507" y="470" as="sourcePoint" />
            <mxPoint x="483" y="370" as="targetPoint" />
          </mxGeometry>
        </mxCell>
        <mxCell id="ot_ApE6teFQn7U3m3sEq-53" value="" style="endArrow=none;html=1;rounded=0;" edge="1" parent="1" source="ot_ApE6teFQn7U3m3sEq-23" target="ot_ApE6teFQn7U3m3sEq-22">
          <mxGeometry width="50" height="50" relative="1" as="geometry">
            <mxPoint x="450" y="450" as="sourcePoint" />
            <mxPoint x="500" y="400" as="targetPoint" />
          </mxGeometry>
        </mxCell>
        <mxCell id="ot_ApE6teFQn7U3m3sEq-54" value="include" style="html=1;verticalAlign=bottom;endArrow=open;dashed=1;endSize=8;curved=0;rounded=0;" edge="1" parent="1" source="ot_ApE6teFQn7U3m3sEq-24" target="ot_ApE6teFQn7U3m3sEq-23">
          <mxGeometry relative="1" as="geometry">
            <mxPoint x="559" y="394" as="sourcePoint" />
            <mxPoint x="501" y="366" as="targetPoint" />
          </mxGeometry>
        </mxCell>
        <mxCell id="ot_ApE6teFQn7U3m3sEq-55" value="" style="rounded=0;whiteSpace=wrap;html=1;fillColor=none;" vertex="1" parent="1">
          <mxGeometry x="320" y="310" width="360" height="270" as="geometry" />
        </mxCell>
      </root>
    </mxGraphModel>
  </diagram>
</mxfile>
